
<svg width="126" height="115" viewBox="0 0 126 115" fill="none" xmlns="http://www.w3.org/2000/svg">
<path d="M121 42.7V16.6C121 13.5235 119.778 10.573 117.602 8.39756C115.427 6.22214 112.477 5 109.4 5H16.6C13.5235 5 10.573 6.22214 8.39756 8.39756C6.22214 10.573 5 13.5235 5 16.6V86.2C5 92.58 10.22 97.8 16.6 97.8H89.1" stroke="#F79239" stroke-width="10" stroke-linecap="round" stroke-linejoin="round"/>
<path d="M121 22.4001L68.974 55.4601C67.1834 56.582 65.113 57.177 63 57.177C60.887 57.177 58.8166 56.582 57.026 55.4601L5 22.4001M97.8 70.4241C98.96 68.1041 100.7 65.7841 103.02 64.6241C105.422 63.2355 108.226 62.7085 110.968 63.1304C113.711 63.5523 116.227 64.8977 118.1 66.9441C119.84 69.2641 121 71.5841 121 74.4841C121 82.0241 109.4 86.0841 109.4 86.0841M109.4 109.4V109.458" stroke="#F79239" stroke-width="10" stroke-linecap="round" stroke-linejoin="round"/>
</svg>
